Coordinates
version=1
nRows=10
nColumns=40
inDegrees=yes

Units are S.I. units (second, meters, Newtons, ...)
Angles are in degrees.

endheader
time	pelvis_tilt	pelvis_list	pelvis_rotation	pelvis_tx	pelvis_ty	pelvis_tz	hip_flexion_r	hip_adduction_r	hip_rotation_r	knee_angle_r	knee_angle_r_beta	ankle_angle_r	subtalar_angle_r	mtp_angle_r	hip_flexion_l	hip_adduction_l	hip_rotation_l	knee_angle_l	knee_angle_l_beta	ankle_angle_l	subtalar_angle_l	mtp_angle_l	lumbar_extension	lumbar_bending	lumbar_rotation	arm_flex_r	arm_add_r	arm_rot_r	elbow_flex_r	pro_sup_r	wrist_flex_r	wrist_dev_r	arm_flex_l	arm_add_l	arm_rot_l	elbow_flex_l	pro_sup_l	wrist_flex_l	wrist_dev_l
     58.12000000	     -6.46068372	     -6.85781894	      0.80097019	      1.09028636	      0.92931163	      0.52348593	     15.20290299	      5.58066012	    -19.28574397	     14.93416858	     14.93416858	      8.90288699	      8.15290089	     -1.99000844	     36.42383782	    -17.37038258	      2.18430185	     67.40150355	     67.40150355	      6.68252619	    -17.38514042	      8.58466714	    -12.84257592	      5.78281187	      3.90591009	     15.58390958	    -18.09793642	      4.44060743	     44.45815835	     45.80034731	      0.00000000	      0.00000000	      3.59422893	     -8.00365108	     -4.78702707	     57.61798859	     46.49280731	      0.00000000	      0.00000000
     58.13121429	     -6.57662526	     -6.85011076	      0.89997179	      1.08878164	      0.92949462	      0.52387180	     14.61271780	      5.68371308	    -19.34088034	     14.46635877	     14.46635877	      9.10483823	      8.43338404	     -2.18673522	     37.74554976	    -17.34795762	      2.10033611	     65.68263468	     65.68263468	      6.71278569	    -17.61758568	      8.62600680	    -12.81271978	      5.76207070	      3.86153049	     17.88688471	    -18.35260891	      4.81347377	     45.78813256	     45.73508916	      0.00000000	      0.00000000	      2.83817745	     -7.87506002	     -5.04139899	     52.93321082	     46.49927664	      0.00000000	      0.00000000
     58.14242857	     -6.63767561	     -6.85127205	      1.00833966	      1.08734874	      0.92969174	      0.52426952	     13.94156543	      5.83554175	    -19.25506098	     13.93163880	     13.93163880	      9.31757001	      8.49959020	     -2.23462091	     38.83558447	    -17.28652968	      2.01748913	     63.73433824	     63.73433824	      6.73220399	    -17.82694621	      8.95717837	    -12.89147886	      5.73267197	      3.42949574	     20.32908838	    -18.24074888	      4.79643849	     47.36237791	     45.68921040	      0.00000000	      0.00000000	      1.32742207	     -8.10714757	     -5.01686940	     50.05211711	     46.46611946	      0.00000000	      0.00000000
     58.15364286	     -6.75406094	     -6.86588831	      1.06678141	      1.08589032	      0.92968003	      0.52458811	     13.36767456	      5.98293705	    -19.16631981	     13.45328208	     13.45328208	      9.44366634	      8.58286952	     -2.61059495	     39.85146379	    -17.24557313	      1.87564009	     61.64236653	     61.64236653	      6.89332961	    -17.87099062	      9.65169039	    -12.84277493	      5.75801271	      3.87625760	     22.31776656	    -19.00099143	      5.87234190	     48.75503534	     45.59223725	      0.00000000	      0.00000000	      1.77317692	     -7.58394425	     -5.64634677	     43.30033599	     46.51749745	      0.00000000	      0.00000000
     58.16485714	     -6.80152302	     -6.90254414	      1.16702191	      1.08452933	      0.92960659	      0.52487233	     12.71833681	      6.15777523	    -19.07894989	     12.97473344	     12.97473344	      9.67462525	      8.62757281	     -2.69651375	     40.65189926	    -17.15964029	      1.79381779	     59.32686419	     59.32686419	      6.91750941	    -17.92388598	     10.21948081	    -12.93872162	      5.75513856	      3.50848676	     24.61580579	    -18.89832935	      5.88524260	     50.48311432	     45.53974424	      0.00000000	      0.00000000	      0.44751044	     -7.73486255	     -5.77820127	     40.51675706	     46.50890574	      0.00000000	      0.00000000
     58.17607143	     -6.89802785	     -6.93639285	      1.22337588	      1.08313911	      0.92935953	      0.52500103	     12.16291802	      6.30828626	    -18.95134381	     12.55589436	     12.55589436	      9.84849022	      8.64005331	     -3.03754715	     41.37213848	    -17.02254039	      1.73218648	     56.85177808	     56.85177808	      7.09116300	    -17.86197185	     11.17626748	    -12.92552906	      5.79933061	      3.93907383	     26.32150837	    -19.63215465	      6.74408212	     52.56394529	     45.43369798	      0.00000000	      0.00000000	      0.75842033	     -7.35990621	     -6.72102682	     34.80597480	     46.62723257	      0.00000000	      0.00000000
     58.18728571	     -6.93462183	     -6.94768283	      1.27563783	      1.08186187	      0.92906969	      0.52508193	     11.55436568	      6.42657311	    -18.82684766	     12.18610280	     12.18610280	     10.16012232	      8.68612202	     -3.10815080	     41.84490922	    -16.85537814	      1.63567243	     54.12923503	     54.12923503	      7.09742146	    -17.77450581	     11.63117103	    -13.03280315	      5.76250312	      3.69000462	     28.47446948	    -19.43615876	      6.58662264	     54.21059262	     45.39312934	      0.00000000	      0.00000000	     -0.68842472	     -7.55576392	     -6.81120984	     33.09508208	     46.61640724	      0.00000000	      0.00000000
     58.19850000	     -7.02672580	     -7.03427745	      1.33125026	      1.08065575	      0.92848257	      0.52498775	     10.99936370	      6.60980227	    -18.71436041	     11.81327856	     11.81327856	     10.49432053	      8.74086259	     -3.22338029	     42.29618354	    -16.68853335	      1.67232173	     51.28939329	     51.28939329	      7.18674656	    -17.52432645	     11.98662832	    -13.03308621	      5.85792004	      3.48427238	     30.54928870	    -19.33930696	      6.62313396	     56.11005841	     45.33560475	      0.00000000	      0.00000000	     -1.95027285	     -7.68265632	     -6.90787556	     30.99625408	     46.61047961	      0.00000000	      0.00000000
     58.20971429	     -7.09019642	     -7.11341585	      1.37503130	      1.07950063	      0.92789640	      0.52481777	     10.41923336	      6.77828198	    -18.62150608	     11.45994877	     11.45994877	     10.80949369	      8.79532187	     -3.34108596	     42.56965384	    -16.52634341	      1.65019428	     48.24539810	     48.24539810	      7.17086794	    -17.12145114	     12.31664117	    -13.06859320	      5.90896964	      3.33724111	     32.45940040	    -19.23453704	      6.72573520	     58.18036902	     45.26929321	      0.00000000	      0.00000000	     -3.15852876	     -7.81011912	     -6.99074449	     29.09224415	     46.60571925	      0.00000000	      0.00000000
     58.22092857	     -7.16766079	     -7.26410948	      1.43287550	      1.07845298	      0.92715111	      0.52446974	      9.82527963	      7.01407384	    -18.54345991	     11.06370242	     11.06370242	     11.11562950	      8.91233980	     -3.47987045	     42.75719688	    -16.37100195	      1.74991824	     45.09883422	     45.09883422	      7.26044395	    -16.53578021	     12.45697361	    -13.08449136	      6.09286540	      3.14544973	     34.21302659	    -19.17334976	      6.94285505	     60.79290914	     45.18029237	      0.00000000	      0.00000000	     -4.33667297	     -7.90549140	     -7.08606987	     27.18138282	     46.60645532	      0.00000000	      0.00000000
